<svg width="20" height="20" viewBox="0 0 20 20" fill="none" xmlns="http://www.w3.org/2000/svg">
<path d="M8.04 18.4H5.12C4.19 18.4 3.3 18 2.64 17.36C2 16.7 1.6 15.81 1.6 14.88V5.12C1.6 4.19 2 3.3 2.64 2.64C3.3 2 4.19 1.62 5.12 1.62H8.04V18.4ZM5.12 0C3.76209 0 2.4598 0.539427 1.49961 1.49961C0.539427 2.4598 0 3.76209 0 5.12V14.88C0 17.71 2.29 20 5.12 20H9.65V0H5.12ZM3.11 6C3.11 7.04 3.95 7.88 5 7.88C6.03 7.88 6.87 7.04 6.87 6C6.87 4.96 6.03 4.12 5 4.12C3.95 4.12 3.11 4.96 3.11 6ZM15.61 9C16.72 9 17.62 9.89 17.62 11C17.62 12.12 16.72 13 15.61 13C14.5 13 13.58 12.12 13.58 11C13.58 9.89 14.5 9 15.61 9ZM14.88 20C16.2379 20 17.5402 19.4606 18.5004 18.5004C19.4606 17.5402 20 16.2379 20 14.88V5.12C20 2.29 17.71 0 14.88 0H11.65V20H14.88Z" fill="black"/>
</svg>
