<svg width="20" height="20" viewBox="0 0 20 20" fill="none" xmlns="http://www.w3.org/2000/svg">
<path d="M4.43 1.72C4.5 1.66 4.57 1.6 4.62 1.56C6.18 0.55 8 0 10 0C11.88 0 13.64 0.5 15.14 1.42C15.25 1.5 15.54 1.69 15.7 1.88C14.25 0.28 10 3.7 10 3.7C8.5 2.57 7.17 1.8 6.16 1.5C5.31 1.29 4.73 1.5 4.46 1.7M17.34 3.21C17.29 3.16 17.24 3.11 17.2 3.06C16.84 2.66 16.38 2.56 16 2.59C15.61 2.71 13.9 3.32 11.8 5.31C11.8 5.31 14.17 7.61 15.62 9.96C17.07 12.31 17.93 14.16 17.4 16.73C19 14.95 20 12.59 20 10C20 7.38 19 5 17.34 3.21ZM13.73 10.96C13.08 10.24 12.13 9.21 10.86 7.95C10.59 7.68 10.3 7.4 10 7.1C10 7.1 9.53 7.56 8.93 8.17C8.16 8.94 7.17 9.95 6.61 10.54C5.63 11.59 2.81 14.89 2.65 16.74C2.65 16.74 2 15.28 3.4 11.89C4.3 9.68 7 6.36 8.15 5.28C8.15 5.28 7.12 4.14 5.82 3.35L5.77 3.32C5.14 2.95 4.46 2.66 3.8 2.62C3.13 2.67 2.71 3.16 2.71 3.16C1.03 4.95 0 7.35 0 10C0 12.6522 1.05357 15.1957 2.92893 17.0711C3.85752 17.9997 4.95991 18.7362 6.17317 19.2388C7.38642 19.7413 8.68678 20 10 20C12.93 20 15.57 18.74 17.4 16.73C17.4 16.73 17.19 15.4 15.84 13.5C15.53 13.07 14.37 11.69 13.73 10.96Z" fill="#F5C518"/>
</svg>
