<svg width="24" height="14" viewBox="0 0 24 14" fill="none" xmlns="http://www.w3.org/2000/svg">
<path d="M6 4H8V6H10V8H8V10H6V8H4V6H6V4ZM18.5 4C18.8978 4 19.2794 4.15804 19.5607 4.43934C19.842 4.72064 20 5.10218 20 5.5C20 5.89782 19.842 6.27936 19.5607 6.56066C19.2794 6.84196 18.8978 7 18.5 7C18.1022 7 17.7206 6.84196 17.4393 6.56066C17.158 6.27936 17 5.89782 17 5.5C17 5.10218 17.158 4.72064 17.4393 4.43934C17.7206 4.15804 18.1022 4 18.5 4ZM15.5 7C15.8978 7 16.2794 7.15804 16.5607 7.43934C16.842 7.72064 17 8.10218 17 8.5C17 8.89782 16.842 9.27936 16.5607 9.56066C16.2794 9.84196 15.8978 10 15.5 10C15.1022 10 14.7206 9.84196 14.4393 9.56066C14.158 9.27936 14 8.89782 14 8.5C14 8.10218 14.158 7.72064 14.4393 7.43934C14.7206 7.15804 15.1022 7 15.5 7ZM17 0C18.8565 0 20.637 0.737498 21.9497 2.05025C23.2625 3.36301 24 5.14348 24 7C24 8.85652 23.2625 10.637 21.9497 11.9497C20.637 13.2625 18.8565 14 17 14C15.04 14 13.27 13.2 12 11.9C10.73 13.2 8.96 14 7 14C5.14348 14 3.36301 13.2625 2.05025 11.9497C0.737498 10.637 0 8.85652 0 7C0 5.14348 0.737498 3.36301 2.05025 2.05025C3.36301 0.737498 5.14348 0 7 0H17ZM7 2C5.67392 2 4.40215 2.52678 3.46447 3.46447C2.52678 4.40215 2 5.67392 2 7C2 8.32608 2.52678 9.59785 3.46447 10.5355C4.40215 11.4732 5.67392 12 7 12C8.64 12 10.09 11.21 11 10H13C13.91 11.21 15.36 12 17 12C18.3261 12 19.5979 11.4732 20.5355 10.5355C21.4732 9.59785 22 8.32608 22 7C22 5.67392 21.4732 4.40215 20.5355 3.46447C19.5979 2.52678 18.3261 2 17 2H7Z" fill="#F5C518"/>
</svg>
